<svg width="323" height="81" viewBox="0 0 323 81" fill="none" xmlns="http://www.w3.org/2000/svg">
<rect width="323" height="81" fill="#FAF7F7"/>
<path d="M33.4797 28.6738L25.007 52H21.5441L31.3 26.4062H33.5324L33.4797 28.6738ZM40.5813 52L32.091 28.6738L32.0383 26.4062H34.2707L44.0617 52H40.5813ZM40.1418 42.5254V45.3027H25.7629V42.5254H40.1418ZM52.0492 37.041V52H48.7973V32.9805H51.8734L52.0492 37.041ZM51.2758 41.7695L49.9223 41.7168C49.934 40.416 50.1273 39.2148 50.5023 38.1133C50.8773 37 51.4047 36.0332 52.0844 35.2129C52.7641 34.3926 53.5727 33.7598 54.5102 33.3145C55.4594 32.8574 56.5082 32.6289 57.6566 32.6289C58.5941 32.6289 59.4379 32.7578 60.1879 33.0156C60.9379 33.2617 61.5766 33.6602 62.1039 34.2109C62.643 34.7617 63.0531 35.4766 63.3344 36.3555C63.6156 37.2227 63.7563 38.2832 63.7563 39.5371V52H60.4867V39.502C60.4867 38.5059 60.3402 37.709 60.0473 37.1113C59.7543 36.502 59.3266 36.0625 58.7641 35.793C58.2016 35.5117 57.5102 35.3711 56.6898 35.3711C55.8813 35.3711 55.143 35.541 54.475 35.8809C53.8188 36.2207 53.2504 36.6895 52.7699 37.2871C52.3012 37.8848 51.932 38.5703 51.6625 39.3438C51.4047 40.1055 51.2758 40.9141 51.2758 41.7695ZM82.484 48.3086V25H85.7535V52H82.7652L82.484 48.3086ZM69.6871 42.7012V42.332C69.6871 40.8789 69.8629 39.5605 70.2145 38.377C70.5777 37.1816 71.0875 36.1562 71.7438 35.3008C72.4117 34.4453 73.2027 33.7891 74.1168 33.332C75.0426 32.8633 76.0738 32.6289 77.2105 32.6289C78.4059 32.6289 79.4488 32.8398 80.3395 33.2617C81.2418 33.6719 82.0035 34.2754 82.6246 35.0723C83.2574 35.8574 83.7555 36.8066 84.1188 37.9199C84.482 39.0332 84.734 40.293 84.8746 41.6992V43.3164C84.7457 44.7109 84.4938 45.9648 84.1188 47.0781C83.7555 48.1914 83.2574 49.1406 82.6246 49.9258C82.0035 50.7109 81.2418 51.3145 80.3395 51.7363C79.4371 52.1465 78.3824 52.3516 77.1754 52.3516C76.0621 52.3516 75.0426 52.1113 74.1168 51.6309C73.2027 51.1504 72.4117 50.4766 71.7438 49.6094C71.0875 48.7422 70.5777 47.7227 70.2145 46.5508C69.8629 45.3672 69.6871 44.084 69.6871 42.7012ZM72.9566 42.332V42.7012C72.9566 43.6504 73.0504 44.541 73.2379 45.373C73.4371 46.2051 73.7418 46.9375 74.152 47.5703C74.5621 48.2031 75.0836 48.7012 75.7164 49.0645C76.3492 49.416 77.1051 49.5918 77.984 49.5918C79.0621 49.5918 79.9469 49.3633 80.6383 48.9062C81.3414 48.4492 81.9039 47.8457 82.3258 47.0957C82.7477 46.3457 83.0758 45.5312 83.3102 44.6523V40.416C83.1695 39.7715 82.9645 39.1504 82.6949 38.5527C82.4371 37.9434 82.0973 37.4043 81.6754 36.9355C81.2652 36.4551 80.7555 36.0742 80.1461 35.793C79.5484 35.5117 78.8395 35.3711 78.0191 35.3711C77.1285 35.3711 76.3609 35.5586 75.7164 35.9336C75.0836 36.2969 74.5621 36.8008 74.152 37.4453C73.7418 38.0781 73.4371 38.8164 73.2379 39.6602C73.0504 40.4922 72.9566 41.3828 72.9566 42.332ZM95.868 35.9688V52H92.616V32.9805H95.7801L95.868 35.9688ZM101.809 32.875L101.792 35.8984C101.522 35.8398 101.264 35.8047 101.018 35.793C100.784 35.7695 100.514 35.7578 100.21 35.7578C99.4598 35.7578 98.7977 35.875 98.2234 36.1094C97.6492 36.3438 97.1629 36.6719 96.7645 37.0938C96.366 37.5156 96.0496 38.0195 95.8152 38.6055C95.5926 39.1797 95.4461 39.8125 95.3758 40.5039L94.4617 41.0312C94.4617 39.8828 94.5731 38.8047 94.7957 37.7969C95.0301 36.7891 95.3875 35.8984 95.868 35.125C96.3484 34.3398 96.9578 33.7305 97.6961 33.2969C98.4461 32.8516 99.3367 32.6289 100.368 32.6289C100.602 32.6289 100.872 32.6582 101.177 32.7168C101.481 32.7637 101.692 32.8164 101.809 32.875ZM114.156 52.3516C112.832 52.3516 111.631 52.1289 110.553 51.6836C109.486 51.2266 108.566 50.5879 107.793 49.7676C107.031 48.9473 106.445 47.9746 106.035 46.8496C105.625 45.7246 105.42 44.4941 105.42 43.1582V42.4199C105.42 40.873 105.648 39.4961 106.105 38.2891C106.562 37.0703 107.184 36.0391 107.969 35.1953C108.754 34.3516 109.645 33.7129 110.641 33.2793C111.637 32.8457 112.668 32.6289 113.734 32.6289C115.094 32.6289 116.266 32.8633 117.25 33.332C118.246 33.8008 119.061 34.457 119.693 35.3008C120.326 36.1328 120.795 37.1172 121.1 38.2539C121.404 39.3789 121.557 40.6094 121.557 41.9453V43.4043H107.354V40.75H118.305V40.5039C118.258 39.6602 118.082 38.8398 117.777 38.043C117.484 37.2461 117.016 36.5898 116.371 36.0742C115.727 35.5586 114.848 35.3008 113.734 35.3008C112.996 35.3008 112.316 35.459 111.695 35.7754C111.074 36.0801 110.541 36.5371 110.096 37.1465C109.65 37.7559 109.305 38.5 109.059 39.3789C108.812 40.2578 108.689 41.2715 108.689 42.4199V43.1582C108.689 44.0605 108.812 44.9102 109.059 45.707C109.316 46.4922 109.686 47.1836 110.166 47.7812C110.658 48.3789 111.25 48.8477 111.941 49.1875C112.645 49.5273 113.441 49.6973 114.332 49.6973C115.48 49.6973 116.453 49.4629 117.25 48.9941C118.047 48.5254 118.744 47.8984 119.342 47.1133L121.311 48.6777C120.9 49.2988 120.379 49.8906 119.746 50.4531C119.113 51.0156 118.334 51.4727 117.408 51.8242C116.494 52.1758 115.41 52.3516 114.156 52.3516ZM111.924 30.168L115.334 25H119.254L114.543 30.168H111.924ZM153.897 49.2402V52H141.1V49.2402H153.897ZM141.768 26.4062V52H138.375V26.4062H141.768ZM169.953 47.6055V32.9805H173.222V52H170.111L169.953 47.6055ZM170.568 43.5977L171.921 43.5625C171.921 44.8281 171.787 46 171.517 47.0781C171.259 48.1445 170.838 49.0703 170.252 49.8555C169.666 50.6406 168.898 51.2559 167.949 51.7012C167 52.1348 165.845 52.3516 164.486 52.3516C163.56 52.3516 162.711 52.2168 161.937 51.9473C161.175 51.6777 160.519 51.2617 159.968 50.6992C159.418 50.1367 158.99 49.4043 158.685 48.502C158.392 47.5996 158.246 46.5156 158.246 45.25V32.9805H161.498V45.2852C161.498 46.1406 161.591 46.8496 161.779 47.4121C161.978 47.9629 162.242 48.4023 162.57 48.7305C162.91 49.0469 163.285 49.2695 163.695 49.3984C164.117 49.5273 164.55 49.5918 164.996 49.5918C166.379 49.5918 167.474 49.3281 168.283 48.8008C169.091 48.2617 169.671 47.541 170.023 46.6387C170.386 45.7246 170.568 44.7109 170.568 43.5977ZM179.962 25H183.231V48.3086L182.95 52H179.962V25ZM196.081 42.332V42.7012C196.081 44.084 195.917 45.3672 195.589 46.5508C195.261 47.7227 194.78 48.7422 194.147 49.6094C193.514 50.4766 192.741 51.1504 191.827 51.6309C190.913 52.1113 189.864 52.3516 188.68 52.3516C187.473 52.3516 186.413 52.1465 185.499 51.7363C184.596 51.3145 183.835 50.7109 183.214 49.9258C182.593 49.1406 182.095 48.1914 181.72 47.0781C181.356 45.9648 181.104 44.7109 180.964 43.3164V41.6992C181.104 40.293 181.356 39.0332 181.72 37.9199C182.095 36.8066 182.593 35.8574 183.214 35.0723C183.835 34.2754 184.596 33.6719 185.499 33.2617C186.401 32.8398 187.45 32.6289 188.645 32.6289C189.841 32.6289 190.901 32.8633 191.827 33.332C192.753 33.7891 193.526 34.4453 194.147 35.3008C194.78 36.1562 195.261 37.1816 195.589 38.377C195.917 39.5605 196.081 40.8789 196.081 42.332ZM192.811 42.7012V42.332C192.811 41.3828 192.723 40.4922 192.548 39.6602C192.372 38.8164 192.091 38.0781 191.704 37.4453C191.317 36.8008 190.807 36.2969 190.175 35.9336C189.542 35.5586 188.762 35.3711 187.837 35.3711C187.016 35.3711 186.302 35.5117 185.692 35.793C185.095 36.0742 184.585 36.4551 184.163 36.9355C183.741 37.4043 183.395 37.9434 183.126 38.5527C182.868 39.1504 182.675 39.7715 182.546 40.416V44.6523C182.733 45.4727 183.038 46.2637 183.46 47.0254C183.893 47.7754 184.468 48.3906 185.182 48.8711C185.909 49.3516 186.805 49.5918 187.872 49.5918C188.751 49.5918 189.501 49.416 190.122 49.0645C190.755 48.7012 191.264 48.2031 191.651 47.5703C192.05 46.9375 192.343 46.2051 192.53 45.373C192.718 44.541 192.811 43.6504 192.811 42.7012ZM213.209 48.748V38.957C213.209 38.207 213.057 37.5566 212.752 37.0059C212.459 36.4434 212.014 36.0098 211.416 35.7051C210.818 35.4004 210.08 35.248 209.201 35.248C208.381 35.248 207.66 35.3887 207.039 35.6699C206.43 35.9512 205.949 36.3203 205.598 36.7773C205.258 37.2344 205.088 37.7266 205.088 38.2539H201.836C201.836 37.5742 202.012 36.9004 202.363 36.2324C202.715 35.5645 203.219 34.9609 203.875 34.4219C204.543 33.8711 205.34 33.4375 206.266 33.1211C207.203 32.793 208.246 32.6289 209.395 32.6289C210.777 32.6289 211.996 32.8633 213.051 33.332C214.117 33.8008 214.949 34.5098 215.547 35.459C216.156 36.3965 216.461 37.5742 216.461 38.9922V47.8516C216.461 48.4844 216.514 49.1582 216.619 49.873C216.736 50.5879 216.906 51.2031 217.129 51.7188V52H213.736C213.572 51.625 213.443 51.127 213.35 50.5059C213.256 49.873 213.209 49.2871 213.209 48.748ZM213.771 40.4688L213.807 42.7539H210.52C209.594 42.7539 208.768 42.8301 208.041 42.9824C207.314 43.123 206.705 43.3398 206.213 43.6328C205.721 43.9258 205.346 44.2949 205.088 44.7402C204.83 45.1738 204.701 45.6836 204.701 46.2695C204.701 46.8672 204.836 47.4121 205.105 47.9043C205.375 48.3965 205.779 48.7891 206.318 49.082C206.869 49.3633 207.543 49.5039 208.34 49.5039C209.336 49.5039 210.215 49.293 210.977 48.8711C211.738 48.4492 212.342 47.9336 212.787 47.3242C213.244 46.7148 213.49 46.123 213.525 45.5488L214.914 47.1133C214.832 47.6055 214.609 48.1504 214.246 48.748C213.883 49.3457 213.396 49.9199 212.787 50.4707C212.189 51.0098 211.475 51.4609 210.643 51.8242C209.822 52.1758 208.896 52.3516 207.865 52.3516C206.576 52.3516 205.445 52.0996 204.473 51.5957C203.512 51.0918 202.762 50.418 202.223 49.5742C201.695 48.7188 201.432 47.7637 201.432 46.709C201.432 45.6895 201.631 44.793 202.029 44.0195C202.428 43.2344 203.002 42.584 203.752 42.0684C204.502 41.541 205.404 41.1426 206.459 40.873C207.514 40.6035 208.691 40.4688 209.992 40.4688H213.771ZM228.193 48.625L233.079 32.9805H235.224L234.802 36.0918L229.827 52H227.736L228.193 48.625ZM224.905 32.9805L229.071 48.8008L229.37 52H227.173L221.654 32.9805H224.905ZM239.9 48.6777L243.872 32.9805H247.107L241.587 52H239.407L239.9 48.6777ZM235.698 32.9805L240.48 48.3613L241.025 52H238.95L233.835 36.0566L233.413 32.9805H235.698ZM263.321 46.9551C263.321 46.4863 263.215 46.0527 263.004 45.6543C262.805 45.2441 262.389 44.875 261.756 44.5469C261.135 44.207 260.198 43.9141 258.944 43.668C257.889 43.4453 256.934 43.1816 256.079 42.877C255.235 42.5723 254.514 42.2031 253.916 41.7695C253.33 41.3359 252.879 40.8262 252.563 40.2402C252.246 39.6543 252.088 38.9688 252.088 38.1836C252.088 37.4336 252.252 36.7246 252.58 36.0566C252.92 35.3887 253.395 34.7969 254.004 34.2812C254.625 33.7656 255.37 33.3613 256.237 33.0684C257.104 32.7754 258.071 32.6289 259.137 32.6289C260.661 32.6289 261.961 32.8984 263.039 33.4375C264.118 33.9766 264.944 34.6973 265.518 35.5996C266.092 36.4902 266.379 37.4805 266.379 38.5703H263.127C263.127 38.043 262.969 37.5332 262.653 37.041C262.348 36.5371 261.897 36.1211 261.299 35.793C260.713 35.4648 259.993 35.3008 259.137 35.3008C258.235 35.3008 257.502 35.4414 256.94 35.7227C256.389 35.9922 255.985 36.3379 255.727 36.7598C255.481 37.1816 255.358 37.627 255.358 38.0957C255.358 38.4473 255.416 38.7637 255.534 39.0449C255.663 39.3145 255.885 39.5664 256.202 39.8008C256.518 40.0234 256.963 40.2344 257.538 40.4336C258.112 40.6328 258.844 40.832 259.735 41.0312C261.293 41.3828 262.577 41.8047 263.584 42.2969C264.592 42.7891 265.342 43.3926 265.834 44.1074C266.327 44.8223 266.573 45.6895 266.573 46.709C266.573 47.541 266.397 48.3027 266.045 48.9941C265.705 49.6855 265.207 50.2832 264.551 50.7871C263.907 51.2793 263.133 51.666 262.231 51.9473C261.34 52.2168 260.338 52.3516 259.225 52.3516C257.549 52.3516 256.131 52.0527 254.971 51.4551C253.811 50.8574 252.932 50.084 252.334 49.1348C251.737 48.1855 251.438 47.1836 251.438 46.1289H254.707C254.754 47.0195 255.012 47.7285 255.481 48.2559C255.95 48.7715 256.524 49.1406 257.204 49.3633C257.883 49.5742 258.557 49.6797 259.225 49.6797C260.116 49.6797 260.86 49.5625 261.457 49.3281C262.067 49.0938 262.53 48.7715 262.846 48.3613C263.163 47.9512 263.321 47.4824 263.321 46.9551ZM275.914 25V52H272.644V25H275.914ZM287.533 32.9805L279.236 41.8574L274.595 46.6738L274.332 43.2109L277.654 39.2383L283.56 32.9805H287.533ZM284.562 52L277.777 42.9297L279.464 40.0293L288.394 52H284.562ZM296.223 32.9805V52H292.954V32.9805H296.223ZM292.708 27.9355C292.708 27.4082 292.866 26.9629 293.182 26.5996C293.511 26.2363 293.991 26.0547 294.624 26.0547C295.245 26.0547 295.72 26.2363 296.048 26.5996C296.388 26.9629 296.557 27.4082 296.557 27.9355C296.557 28.4395 296.388 28.873 296.048 29.2363C295.72 29.5879 295.245 29.7637 294.624 29.7637C293.991 29.7637 293.511 29.5879 293.182 29.2363C292.866 28.873 292.708 28.4395 292.708 27.9355Z" fill="black"/>
</svg>
